<svg xmlns="http://www.w3.org/2000/svg" xmlns:xlink="http://www.w3.org/1999/xlink" viewBox="0 0 1440 325"><defs><style>.cls-1{fill:url(#Degradado_sin_nombre_13);}.cls-2{opacity:0.05;}.cls-3{fill:#fff;}</style><linearGradient id="Degradado_sin_nombre_13" y1="162.5" x2="1440" y2="162.5" gradientUnits="userSpaceOnUse"><stop offset="0" stop-color="#b71c1c"/><stop offset="1" stop-color="#d32f2f"/></linearGradient></defs><title>Recurso 5image</title><g id="Capa_2" data-name="Capa 2"><g id="Layer_1" data-name="Layer 1"><rect class="cls-1" width="1440" height="325"/><g class="cls-2"><path class="cls-3" d="M1364.72,21.5v64a32.18,32.18,0,0,1,0-64Zm6.5,0V50.27h28.7A32.14,32.14,0,0,0,1371.21,21.5Zm0,35.23V85.5a32.11,32.11,0,0,0,28.7-28.77Z"/><path class="cls-3" d="M90.68,34.55H65.42L59.1,28.23h-19a6.31,6.31,0,0,0-6.29,6.32l0,37.9a6.34,6.34,0,0,0,6.32,6.32H90.68A6.34,6.34,0,0,0,97,72.45V40.87A6.34,6.34,0,0,0,90.68,34.55Zm0,37.9H40.15V40.87H90.68Z"/><path class="cls-3" d="M519.34,48.23a20.14,20.14,0,0,0-37.63-5.37A16.12,16.12,0,0,0,483.46,75H518.4a13.4,13.4,0,0,0,.94-26.77Z"/><path class="cls-3" d="M1177.22,24.18h-52.77a5.88,5.88,0,0,0-5.86,5.86V65.23a5.88,5.88,0,0,0,5.86,5.86H1145V77h-5.86v5.86h23.46V77h-5.86V71.09h20.52a5.88,5.88,0,0,0,5.86-5.86V30A5.88,5.88,0,0,0,1177.22,24.18Zm0,41h-52.77V30h52.77Z"/><path class="cls-3" d="M909.23,72.55l4.09,4.09,5.19-5.22-4.09-4.09ZM930.85,83.9h5.8V75.34h-5.8ZM910.54,49.22h-8.71V55h8.71Zm31.92-12.16v-14H925v14a17.41,17.41,0,1,0,17.41,0ZM957,49.22V55h8.71v-5.8Zm-8,22.23,5.19,5.22,4.09-4.09L953,67.38Z"/><path class="cls-3" d="M716.67,51a46.08,46.08,0,0,0-31.53-12.44V77.06A46.08,46.08,0,0,1,716.67,89.5,46.25,46.25,0,0,1,748.2,77.06V38.52A46.08,46.08,0,0,0,716.67,51Zm0-12.44A10.51,10.51,0,1,0,706.15,28,10.5,10.5,0,0,0,716.67,38.52Z"/><path class="cls-3" d="M282.88,21.25A32.13,32.13,0,1,0,315,53.38,32.14,32.14,0,0,0,282.88,21.25Zm4.53,51.69v6.14h-8.58v-6.2c-5.49-1.16-10.15-4.69-10.5-10.92h6.3c.32,3.37,2.63,6,8.51,6,6.3,0,7.71-3.15,7.71-5.11,0-2.67-1.41-5.17-8.58-6.87-8-1.93-13.43-5.2-13.43-11.79,0-5.53,4.47-9.12,10-10.31v-6.2h8.58v6.26a11.36,11.36,0,0,1,9.16,10.89h-6.3c-.16-3.57-2.06-6-7.13-6-4.82,0-7.71,2.18-7.71,5.27,0,2.7,2.09,4.47,8.58,6.14s13.43,4.47,13.43,12.56C297.4,68.67,293,71.88,287.4,72.94Z"/><path class="cls-3" d="M62.72,240.5v64a32.18,32.18,0,0,1,0-64Zm6.5,0v28.77h28.7A32.14,32.14,0,0,0,69.21,240.5Zm0,35.23V304.5a32.11,32.11,0,0,0,28.7-28.77Z"/><path class="cls-3" d="M958.68,136.55H933.42l-6.32-6.32h-19a6.31,6.31,0,0,0-6.29,6.32l0,37.9a6.34,6.34,0,0,0,6.32,6.32h50.53a6.34,6.34,0,0,0,6.32-6.32V142.87A6.34,6.34,0,0,0,958.68,136.55Zm0,37.9H908.15V142.87h50.53Z"/><path class="cls-3" d="M1387.34,150.23a20.14,20.14,0,0,0-37.63-5.37,16.12,16.12,0,0,0,1.75,32.14h34.94a13.4,13.4,0,0,0,.94-26.77Z"/><path class="cls-3" d="M1393.22,243.18h-52.77a5.88,5.88,0,0,0-5.86,5.86v35.18a5.88,5.88,0,0,0,5.86,5.86H1361V296h-5.86v5.86h23.46V296h-5.86v-5.86h20.52a5.88,5.88,0,0,0,5.86-5.86V249A5.88,5.88,0,0,0,1393.22,243.18Zm0,41h-52.77V249h52.77Z"/><path class="cls-3" d="M1125.23,291.55l4.09,4.09,5.19-5.22-4.09-4.09Zm21.62,11.35h5.8v-8.56h-5.8Zm-20.31-34.68h-8.71V274h8.71Zm31.92-12.16v-14H1141v14a17.41,17.41,0,1,0,17.41,0ZM1173,268.22V274h8.71v-5.8Zm-8,22.23,5.19,5.22,4.09-4.09-5.22-5.19Z"/><path class="cls-3" d="M932.67,270a46.08,46.08,0,0,0-31.53-12.44v38.54a46.08,46.08,0,0,1,31.53,12.44,46.25,46.25,0,0,1,31.53-12.44V257.52A46.08,46.08,0,0,0,932.67,270Zm0-12.44A10.51,10.51,0,1,0,922.15,247,10.5,10.5,0,0,0,932.67,257.52Z"/><path class="cls-3" d="M1150.88,123.25A32.13,32.13,0,1,0,1183,155.38,32.14,32.14,0,0,0,1150.88,123.25Zm4.53,51.69v6.14h-8.58v-6.2c-5.49-1.16-10.15-4.69-10.5-10.92h6.3c.32,3.37,2.63,6,8.51,6,6.3,0,7.71-3.15,7.71-5.11,0-2.67-1.41-5.17-8.58-6.87-8-1.93-13.43-5.2-13.43-11.79,0-5.53,4.47-9.12,10-10.31v-6.2h8.58v6.26a11.36,11.36,0,0,1,9.16,10.89h-6.3c-.16-3.57-2.06-6-7.13-6-4.82,0-7.71,2.18-7.71,5.27,0,2.7,2.09,4.47,8.58,6.14s13.43,4.47,13.43,12.56C1165.4,170.67,1161,173.88,1155.4,174.94Z"/><path class="cls-3" d="M713.72,127.5v64a32.18,32.18,0,0,1,0-64Zm6.5,0v28.77h28.7A32.14,32.14,0,0,0,720.21,127.5Zm0,35.23V191.5a32.11,32.11,0,0,0,28.7-28.77Z"/><path class="cls-3" d="M307.68,253.55H282.42l-6.32-6.32h-19a6.31,6.31,0,0,0-6.29,6.32l0,37.9a6.34,6.34,0,0,0,6.32,6.32h50.53a6.34,6.34,0,0,0,6.32-6.32V259.87A6.34,6.34,0,0,0,307.68,253.55Zm0,37.9H257.15V259.87h50.53Z"/><path class="cls-3" d="M735.34,267.23a20.14,20.14,0,0,0-37.63-5.37A16.12,16.12,0,0,0,699.46,294H734.4a13.4,13.4,0,0,0,.94-26.77Z"/><path class="cls-3" d="M526.22,130.18H473.44a5.88,5.88,0,0,0-5.86,5.86v35.18a5.88,5.88,0,0,0,5.86,5.86H494V183H488.1v5.86h23.46V183H505.7v-5.86h20.52a5.88,5.88,0,0,0,5.86-5.86V136A5.88,5.88,0,0,0,526.22,130.18Zm0,41H473.44V136h52.77Z"/><path class="cls-3" d="M258.23,178.55l4.09,4.09,5.19-5.22-4.09-4.09Zm21.62,11.35h5.8v-8.56h-5.8Zm-20.31-34.68h-8.71V161h8.71Zm31.92-12.16v-14H274v14a17.41,17.41,0,1,0,17.41,0ZM306,155.22V161h8.71v-5.8Zm-8,22.23,5.19,5.22,4.09-4.09L302,173.38Z"/><path class="cls-3" d="M65.67,157a46.08,46.08,0,0,0-31.53-12.44v38.54A46.08,46.08,0,0,1,65.67,195.5,46.25,46.25,0,0,1,97.2,183.06V144.52A46.08,46.08,0,0,0,65.67,157Zm0-12.44A10.51,10.51,0,1,0,55.15,134,10.5,10.5,0,0,0,65.67,144.52Z"/><path class="cls-3" d="M498.88,240.25A32.13,32.13,0,1,0,531,272.38,32.14,32.14,0,0,0,498.88,240.25Zm4.53,51.69v6.14h-8.58v-6.2c-5.49-1.16-10.15-4.69-10.5-10.92h6.3c.32,3.37,2.63,6,8.51,6,6.3,0,7.71-3.15,7.71-5.11,0-2.67-1.41-5.17-8.58-6.87-8-1.93-13.43-5.2-13.43-11.79,0-5.53,4.47-9.12,10-10.31v-6.2h8.58v6.26a11.36,11.36,0,0,1,9.16,10.89h-6.3c-.16-3.57-2.06-6-7.13-6-4.82,0-7.71,2.18-7.71,5.27,0,2.7,2.09,4.47,8.58,6.14s13.43,4.47,13.43,12.56C513.4,287.67,509,290.88,503.4,291.94Z"/></g></g></g></svg>