<svg xmlns="http://www.w3.org/2000/svg" viewBox="0 0 1366.08 291"><defs><style>.cls-1{opacity:0.05;}.cls-2{fill:#fff;}</style></defs><title>Recurso 6image</title><g id="Capa_2" data-name="Capa 2"><g id="Layer_1" data-name="Layer 1"><g class="cls-1"><path class="cls-2" d="M1330.88,4V68a32.18,32.18,0,0,1,0-64Zm6.5,0V32.77h28.7A32.14,32.14,0,0,0,1337.38,4Zm0,35.23V68a32.11,32.11,0,0,0,28.7-28.77Z"/><path class="cls-2" d="M56.85,17H31.58l-6.32-6.32h-19A6.31,6.31,0,0,0,0,17L0,55a6.34,6.34,0,0,0,6.32,6.32H56.85A6.34,6.34,0,0,0,63.17,55V23.37A6.34,6.34,0,0,0,56.85,17Zm0,37.9H6.32V23.37H56.85Z"/><path class="cls-2" d="M485.5,30.73a20.14,20.14,0,0,0-37.63-5.37,16.12,16.12,0,0,0,1.75,32.14h34.94a13.4,13.4,0,0,0,.94-26.77Z"/><path class="cls-2" d="M1143.39,6.68h-52.77a5.88,5.88,0,0,0-5.86,5.86V47.73a5.88,5.88,0,0,0,5.86,5.86h20.52v5.86h-5.86v5.86h23.46V59.46h-5.86V53.59h20.52a5.88,5.88,0,0,0,5.86-5.86V12.54A5.88,5.88,0,0,0,1143.39,6.68Zm0,41h-52.77V12.54h52.77Z"/><path class="cls-2" d="M875.4,55l4.09,4.09,5.19-5.22-4.09-4.09ZM897,66.4h5.8V57.84H897ZM876.7,31.72H868v5.8h8.71Zm31.92-12.16V5.6H891.21v14a17.41,17.41,0,1,0,17.41,0Zm14.51,12.16v5.8h8.71v-5.8Zm-8,22.23,5.19,5.22,4.09-4.09-5.22-5.19Z"/><path class="cls-2" d="M682.83,33.46A46.08,46.08,0,0,0,651.3,21V59.56A46.08,46.08,0,0,1,682.83,72a46.25,46.25,0,0,1,31.53-12.44V21A46.08,46.08,0,0,0,682.83,33.46Zm0-12.44a10.51,10.51,0,1,0-10.51-10.51A10.5,10.5,0,0,0,682.83,21Z"/><path class="cls-2" d="M249,3.75a32.13,32.13,0,1,0,32.13,32.13A32.14,32.14,0,0,0,249,3.75Zm4.53,51.69v6.14H245v-6.2c-5.49-1.16-10.15-4.69-10.5-10.92h6.3c.32,3.37,2.63,6,8.51,6,6.3,0,7.71-3.15,7.71-5.11,0-2.67-1.41-5.17-8.58-6.87-8-1.93-13.43-5.2-13.43-11.79,0-5.53,4.47-9.12,10-10.31v-6.2h8.58v6.26a11.36,11.36,0,0,1,9.16,10.89h-6.3c-.16-3.57-2.06-6-7.13-6-4.82,0-7.71,2.18-7.71,5.27,0,2.7,2.09,4.47,8.58,6.14s13.43,4.47,13.43,12.56C263.56,51.17,259.16,54.38,253.57,55.44Z"/><path class="cls-2" d="M28.88,223v64a32.18,32.18,0,0,1,0-64Zm6.5,0v28.77h28.7A32.14,32.14,0,0,0,35.38,223Zm0,35.23V287a32.11,32.11,0,0,0,28.7-28.77Z"/><path class="cls-2" d="M924.85,119H899.58l-6.32-6.32h-19A6.31,6.31,0,0,0,868,119l0,37.9a6.34,6.34,0,0,0,6.32,6.32h50.53a6.34,6.34,0,0,0,6.32-6.32V125.37A6.34,6.34,0,0,0,924.85,119Zm0,37.9H874.32V125.37h50.53Z"/><path class="cls-2" d="M1353.5,132.73a20.14,20.14,0,0,0-37.63-5.37,16.12,16.12,0,0,0,1.75,32.14h34.94a13.4,13.4,0,0,0,.94-26.77Z"/><path class="cls-2" d="M1359.39,225.68h-52.77a5.88,5.88,0,0,0-5.86,5.86v35.18a5.88,5.88,0,0,0,5.86,5.86h20.52v5.86h-5.86v5.86h23.46v-5.86h-5.86v-5.86h20.52a5.88,5.88,0,0,0,5.86-5.86V231.54A5.88,5.88,0,0,0,1359.39,225.68Zm0,41h-52.77V231.54h52.77Z"/><path class="cls-2" d="M1091.4,274l4.09,4.09,5.19-5.22-4.09-4.09ZM1113,285.4h5.8v-8.56H1113Zm-20.31-34.68H1084v5.8h8.71Zm31.92-12.16v-14h-17.41v14a17.41,17.41,0,1,0,17.41,0Zm14.51,12.16v5.8h8.71v-5.8Zm-8,22.23,5.19,5.22,4.09-4.09-5.22-5.19Z"/><path class="cls-2" d="M898.83,252.46A46.08,46.08,0,0,0,867.3,240v38.54A46.08,46.08,0,0,1,898.83,291a46.25,46.25,0,0,1,31.53-12.44V240A46.08,46.08,0,0,0,898.83,252.46Zm0-12.44a10.51,10.51,0,1,0-10.51-10.51A10.5,10.5,0,0,0,898.83,240Z"/><path class="cls-2" d="M1117,105.75a32.13,32.13,0,1,0,32.13,32.13A32.14,32.14,0,0,0,1117,105.75Zm4.53,51.69v6.14H1113v-6.2c-5.49-1.16-10.15-4.69-10.5-10.92h6.3c.32,3.37,2.63,6,8.51,6,6.3,0,7.71-3.15,7.71-5.11,0-2.67-1.41-5.17-8.58-6.87-8-1.93-13.43-5.2-13.43-11.79,0-5.53,4.47-9.12,10-10.31v-6.2h8.58v6.26a11.36,11.36,0,0,1,9.16,10.89h-6.3c-.16-3.57-2.06-6-7.13-6-4.82,0-7.71,2.18-7.71,5.27,0,2.7,2.09,4.47,8.58,6.14s13.43,4.47,13.43,12.56C1131.56,153.17,1127.16,156.38,1121.57,157.44Z"/><path class="cls-2" d="M679.88,110v64a32.18,32.18,0,0,1,0-64Zm6.5,0v28.77h28.7A32.14,32.14,0,0,0,686.38,110Zm0,35.23V174a32.11,32.11,0,0,0,28.7-28.77Z"/><path class="cls-2" d="M273.85,236H248.58l-6.32-6.32h-19A6.31,6.31,0,0,0,217,236l0,37.9a6.34,6.34,0,0,0,6.32,6.32h50.53a6.34,6.34,0,0,0,6.32-6.32V242.37A6.34,6.34,0,0,0,273.85,236Zm0,37.9H223.32V242.37h50.53Z"/><path class="cls-2" d="M701.5,249.73a20.14,20.14,0,0,0-37.63-5.37,16.12,16.12,0,0,0,1.75,32.14h34.94a13.4,13.4,0,0,0,.94-26.77Z"/><path class="cls-2" d="M492.39,112.68H439.61a5.88,5.88,0,0,0-5.86,5.86v35.18a5.88,5.88,0,0,0,5.86,5.86h20.52v5.86h-5.86v5.86h23.46v-5.86h-5.86v-5.86h20.52a5.88,5.88,0,0,0,5.86-5.86V118.54A5.88,5.88,0,0,0,492.39,112.68Zm0,41H439.61V118.54h52.77Z"/><path class="cls-2" d="M224.4,161l4.09,4.09,5.19-5.22-4.09-4.09ZM246,172.4h5.8v-8.56H246ZM225.7,137.72H217v5.8h8.71Zm31.92-12.16v-14H240.21v14a17.41,17.41,0,1,0,17.41,0Zm14.51,12.16v5.8h8.71v-5.8Zm-8,22.23,5.19,5.22,4.09-4.09-5.22-5.19Z"/><path class="cls-2" d="M31.83,139.46A46.08,46.08,0,0,0,.3,127v38.54A46.08,46.08,0,0,1,31.83,178a46.25,46.25,0,0,1,31.53-12.44V127A46.08,46.08,0,0,0,31.83,139.46Zm0-12.44a10.51,10.51,0,1,0-10.51-10.51A10.5,10.5,0,0,0,31.83,127Z"/><path class="cls-2" d="M465,222.75a32.13,32.13,0,1,0,32.13,32.13A32.14,32.14,0,0,0,465,222.75Zm4.53,51.69v6.14H461v-6.2c-5.49-1.16-10.15-4.69-10.5-10.92h6.3c.32,3.37,2.63,6,8.51,6,6.3,0,7.71-3.15,7.71-5.11,0-2.67-1.41-5.17-8.58-6.87-8-1.93-13.43-5.2-13.43-11.79,0-5.53,4.47-9.12,10-10.31v-6.2h8.58v6.26a11.36,11.36,0,0,1,9.16,10.89h-6.3c-.16-3.57-2.06-6-7.13-6-4.82,0-7.71,2.18-7.71,5.27,0,2.7,2.09,4.47,8.58,6.14s13.43,4.47,13.43,12.56C479.56,270.17,475.16,273.38,469.57,274.44Z"/></g></g></g></svg>