<?xml version="1.0" encoding="utf-8"?>
<!-- Generator: Adobe Illustrator 19.2.1, SVG Export Plug-In . SVG Version: 6.00 Build 0)  -->
<svg version="1.1" id="Layer_1" xmlns="http://www.w3.org/2000/svg" xmlns:xlink="http://www.w3.org/1999/xlink" x="0px" y="0px"
	 viewBox="0 0 950 900" style="enable-background:new 0 0 950 900;" xml:space="preserve">
<style type="text/css">
	.st0{opacity:0.6;fill:#FF3632;enable-background:new    ;}
	.st1{opacity:0.9;}
	.st2{fill:#424242;}
	.st3{fill:#FFFFFF;}
	.st4{fill:#F5F5F5;}
	.st5{fill:none;stroke:#000000;stroke-width:0.2078;stroke-miterlimit:10;}
	.st6{fill:#BF360C;}
	.st7{fill:#6A1B9A;}
	.st8{fill:none;stroke:#000000;stroke-width:0.1823;stroke-miterlimit:10;}
	.st9{fill:#283593;}
	.st10{fill:#00796B;}
	.st11{fill:none;stroke:#000000;stroke-width:0.2791;stroke-miterlimit:10;}
	.st12{fill:#1565C0;}
	.st13{fill:none;stroke:#000000;stroke-width:0.2222;stroke-miterlimit:10;}
	.st14{fill:#00838F;}
	.st15{opacity:0.6;fill:#D51516;enable-background:new    ;}
	.st16{fill:#D32F2F;}
	.st17{font-family:'Calibri';}
	.st18{font-size:156.121px;}
	.st19{font-size:38.1629px;}
</style>
<g>
	<path class="st0" d="M283.6,383.8c-105.5,105.5-105.5,276.8,0.4,382.6c0.1,0.1,0.4,0.4,0.6,0.6l382-382c-0.1-0.1-0.4-0.4-0.6-0.6
		C560.3,278.3,389.1,278.3,283.6,383.8z"/>
	<g class="st1">
		<g>
			<path class="st2" d="M592.5,566.5H368.3c-6.3,0-11.3-5.1-11.3-11.3v-48.4c0-6.3,5.1-11.3,11.3-11.3h224.1V566.5z"/>
			<path class="st3" d="M592.9,562.1H474.5c-4.3,0-7.7-3.5-7.7-7.7v-47c0-4.3,3.5-7.7,7.7-7.7h118.4V562.1z"/>
			<path class="st4" d="M591,562.1h-212c-5.7,0-10.2-4.6-10.2-10.2V510c0-5.7,4.6-10.2,10.2-10.2h212V562.1z"/>
			<g>
				<line class="st5" x1="381" y1="510.6" x2="591" y2="510.6"/>
				<line class="st5" x1="381" y1="527.1" x2="591" y2="527.1"/>
				<line class="st5" x1="381" y1="518.8" x2="591" y2="518.8"/>
				<line class="st5" x1="381" y1="535.3" x2="591" y2="535.3"/>
				<line class="st5" x1="381" y1="551.8" x2="591" y2="551.8"/>
				<line class="st5" x1="381" y1="543.5" x2="591" y2="543.5"/>
			</g>
			<polygon class="st6" points="432.9,519.3 432.9,561.7 416.9,540.5 401,561.7 401,519.3 			"/>
		</g>
		<path class="st7" d="M578.3,494.3H381.6c-5.4,0-9.9-4.5-9.9-9.9v-42.5c0-5.4,4.5-9.9,9.9-9.9h196.7V494.3z"/>
		<path class="st4" d="M578.3,490.5H391c-5.1,0-9-4.1-9-9v-36.7c0-5.1,4.1-9,9-9h187.3V490.5z"/>
		<g>
			<line class="st8" x1="392.7" y1="445.2" x2="577" y2="445.2"/>
			<line class="st8" x1="392.7" y1="459.6" x2="577" y2="459.6"/>
			<line class="st8" x1="392.7" y1="452.4" x2="577" y2="452.4"/>
			<line class="st8" x1="392.7" y1="466.9" x2="577" y2="466.9"/>
			<line class="st8" x1="392.7" y1="481.3" x2="577" y2="481.3"/>
			<line class="st8" x1="392.7" y1="474.1" x2="577" y2="474.1"/>
		</g>
		<polygon class="st9" points="435.9,444.5 435.9,481.6 423,463 410.1,481.6 410.1,444.5 		"/>
		<path class="st3" d="M559.6,733h-159c-5.8,0-10.4-4.7-10.4-10.4v-63.1c0-5.8,4.7-10.4,10.4-10.4h159V733z"/>
		<path class="st10" d="M633.1,738.9H332c-8.4,0-15.2-6.7-15.2-15.2v-65c0-8.4,6.7-15.2,15.2-15.2h301.1V738.9z"/>
		<path class="st4" d="M633.1,733H346.4c-7.7,0-13.9-6.3-13.9-13.9v-56.2c0-7.7,6.3-13.9,13.9-13.9h286.7V733z"/>
		<g>
			<line class="st11" x1="349.1" y1="663.8" x2="631" y2="663.8"/>
			<line class="st11" x1="349.1" y1="685.8" x2="631" y2="685.8"/>
			<line class="st11" x1="349.1" y1="674.8" x2="631" y2="674.8"/>
			<line class="st11" x1="349.1" y1="696.9" x2="631" y2="696.9"/>
			<line class="st11" x1="349.1" y1="719.1" x2="631" y2="719.1"/>
			<line class="st11" x1="349.1" y1="708" x2="631" y2="708"/>
		</g>
		<polygon class="st6" points="406.5,685.8 406.5,742.7 384.2,714.3 361.8,742.7 361.8,685.8 		"/>
		<path class="st3" d="M542.4,635.8H415.8c-4.6,0-8.3-3.7-8.3-8.3v-50.3c0-4.6,3.7-8.3,8.3-8.3h126.6V635.8z"/>
		<path class="st12" d="M600.9,643.2H361.2c-6.6,0-12-5.4-12-12v-51.8c0-6.6,5.4-12,12-12h239.7V643.2z"/>
		<path class="st4" d="M600.9,638.5H372.7c-6.1,0-11.1-4.9-11.1-11.1v-44.8c0-6.1,4.9-11.1,11.1-11.1h228.2V638.5z"/>
		<g>
			<line class="st13" x1="374.7" y1="583.3" x2="599.2" y2="583.3"/>
			<line class="st13" x1="374.7" y1="600.9" x2="599.2" y2="600.9"/>
			<line class="st13" x1="374.7" y1="592.1" x2="599.2" y2="592.1"/>
			<line class="st13" x1="374.7" y1="609.7" x2="599.2" y2="609.7"/>
			<line class="st13" x1="374.7" y1="627.3" x2="599.2" y2="627.3"/>
			<line class="st13" x1="374.7" y1="618.5" x2="599.2" y2="618.5"/>
		</g>
		<polygon class="st14" points="417.1,582.6 417.1,627.8 401,605.3 385,627.8 385,582.6 		"/>
	</g>
	<path class="st15" d="M666.4,766.6c105.4-105.4,105.4-276.1,0.4-381.8l-382,382C390.3,871.9,561.1,871.9,666.4,766.6z"/>
</g>
<text transform="matrix(1 0 0 1 107.1475 209.8401)" class="st16 st17 st18">DENEGADO</text>
<text transform="matrix(1 0 0 1 112.9553 255.6633)" class="st16 st17 st19">Lo sentimos pero no puedes entrar a este sitio.</text>
</svg>
