<?xml version="1.0" encoding="utf-8"?>
<!-- Generator: Adobe Illustrator 19.2.1, SVG Export Plug-In . SVG Version: 6.00 Build 0)  -->
<svg version="1.1" id="Layer_1" xmlns="http://www.w3.org/2000/svg" xmlns:xlink="http://www.w3.org/1999/xlink" x="0px" y="0px"
	 viewBox="0 0 1024 1024" style="enable-background:new 0 0 1024 1024;" xml:space="preserve">
<style type="text/css">
	.st0{fill:#FFEBEE;}
	.st1{opacity:0.6;fill:#FF3632;}
	.st2{opacity:0.9;}
	.st3{fill:#424242;}
	.st4{fill:#FFFFFF;}
	.st5{fill:#F5F5F5;}
	.st6{fill:none;stroke:#000000;stroke-width:0.1725;stroke-miterlimit:10;}
	.st7{fill:#BF360C;}
	.st8{fill:#6A1B9A;}
	.st9{fill:none;stroke:#000000;stroke-width:0.1514;stroke-miterlimit:10;}
	.st10{fill:#283593;}
	.st11{fill:#00796B;}
	.st12{fill:none;stroke:#000000;stroke-width:0.2317;stroke-miterlimit:10;}
	.st13{fill:#1565C0;}
	.st14{fill:none;stroke:#000000;stroke-width:0.1845;stroke-miterlimit:10;}
	.st15{fill:#00838F;}
	.st16{opacity:0.6;fill:#D51516;}
	.st17{fill:#D32F2F;}
	.st18{font-family:'MalayalamSangamMN';}
	.st19{font-size:156.121px;}
	.st20{font-size:38.1629px;}
</style>
<rect x="-0.2" y="3.1" class="st0" width="1024" height="1024"/>
<g>
	<path class="st1" d="M353.1,498.4c-87.6,87.6-87.6,229.8,0.3,317.7c0.1,0.1,0.3,0.3,0.5,0.5l317.2-317.2c-0.1-0.1-0.3-0.3-0.5-0.5
		C582.9,410.8,440.7,410.8,353.1,498.4z"/>
	<g class="st2">
		<g>
			<path class="st3" d="M609.6,650.1H423.5c-5.2,0-9.4-4.2-9.4-9.4v-40.2c0-5.2,4.2-9.4,9.4-9.4h186.1V650.1z"/>
			<path class="st4" d="M609.9,646.5h-98.3c-3.6,0-6.4-2.9-6.4-6.4v-39c0-3.6,2.9-6.4,6.4-6.4h98.3V646.5z"/>
			<path class="st5" d="M608.4,646.5h-176c-4.7,0-8.5-3.8-8.5-8.5v-34.8c0-4.7,3.8-8.5,8.5-8.5h176V646.5z"/>
			<g>
				<line class="st6" x1="434" y1="603.7" x2="608.4" y2="603.7"/>
				<line class="st6" x1="434" y1="617.4" x2="608.4" y2="617.4"/>
				<line class="st6" x1="434" y1="610.5" x2="608.4" y2="610.5"/>
				<line class="st6" x1="434" y1="624.2" x2="608.4" y2="624.2"/>
				<line class="st6" x1="434" y1="637.9" x2="608.4" y2="637.9"/>
				<line class="st6" x1="434" y1="631" x2="608.4" y2="631"/>
			</g>
			<polygon class="st7" points="477.1,610.9 477.1,646.1 463.8,628.5 450.6,646.1 450.6,610.9 			"/>
		</g>
		<path class="st8" d="M597.8,590.2H434.5c-4.5,0-8.2-3.7-8.2-8.2v-35.3c0-4.5,3.7-8.2,8.2-8.2h163.3V590.2z"/>
		<path class="st5" d="M597.8,587H442.3c-4.2,0-7.5-3.4-7.5-7.5v-30.5c0-4.2,3.4-7.5,7.5-7.5h155.5V587z"/>
		<g>
			<line class="st9" x1="443.7" y1="549.4" x2="596.7" y2="549.4"/>
			<line class="st9" x1="443.7" y1="561.4" x2="596.7" y2="561.4"/>
			<line class="st9" x1="443.7" y1="555.4" x2="596.7" y2="555.4"/>
			<line class="st9" x1="443.7" y1="567.4" x2="596.7" y2="567.4"/>
			<line class="st9" x1="443.7" y1="579.4" x2="596.7" y2="579.4"/>
			<line class="st9" x1="443.7" y1="573.4" x2="596.7" y2="573.4"/>
		</g>
		<polygon class="st10" points="479.6,548.8 479.6,579.6 468.9,564.2 458.2,579.6 458.2,548.8 		"/>
		<path class="st4" d="M582.3,788.4h-132c-4.8,0-8.6-3.9-8.6-8.6v-52.4c0-4.8,3.9-8.6,8.6-8.6h132V788.4z"/>
		<path class="st11" d="M643.3,793.3h-250c-7,0-12.6-5.6-12.6-12.6v-54c0-7,5.6-12.6,12.6-12.6h250V793.3z"/>
		<path class="st5" d="M643.3,788.4h-238c-6.4,0-11.5-5.2-11.5-11.5v-46.7c0-6.4,5.2-11.5,11.5-11.5h238V788.4z"/>
		<g>
			<line class="st12" x1="407.5" y1="730.9" x2="641.6" y2="730.9"/>
			<line class="st12" x1="407.5" y1="749.2" x2="641.6" y2="749.2"/>
			<line class="st12" x1="407.5" y1="740" x2="641.6" y2="740"/>
			<line class="st12" x1="407.5" y1="758.4" x2="641.6" y2="758.4"/>
			<line class="st12" x1="407.5" y1="776.8" x2="641.6" y2="776.8"/>
			<line class="st12" x1="407.5" y1="767.6" x2="641.6" y2="767.6"/>
		</g>
		<polygon class="st7" points="455.2,749.2 455.2,796.4 436.7,772.8 418.1,796.4 418.1,749.2 		"/>
		<path class="st4" d="M568,707.7H462.9c-3.8,0-6.9-3.1-6.9-6.9V659c0-3.8,3.1-6.9,6.9-6.9H568V707.7z"/>
		<path class="st13" d="M616.6,713.8h-199c-5.5,0-10-4.5-10-10v-43c0-5.5,4.5-10,10-10h199V713.8z"/>
		<path class="st5" d="M616.6,709.9H427.1c-5.1,0-9.2-4.1-9.2-9.2v-37.2c0-5.1,4.1-9.2,9.2-9.2h189.5V709.9z"/>
		<g>
			<line class="st14" x1="428.8" y1="664.1" x2="615.2" y2="664.1"/>
			<line class="st14" x1="428.8" y1="678.7" x2="615.2" y2="678.7"/>
			<line class="st14" x1="428.8" y1="671.4" x2="615.2" y2="671.4"/>
			<line class="st14" x1="428.8" y1="686" x2="615.2" y2="686"/>
			<line class="st14" x1="428.8" y1="700.6" x2="615.2" y2="700.6"/>
			<line class="st14" x1="428.8" y1="693.3" x2="615.2" y2="693.3"/>
		</g>
		<polygon class="st15" points="464,663.5 464,701 450.6,682.3 437.3,701 437.3,663.5 		"/>
	</g>
	<path class="st16" d="M671,816.3c87.5-87.5,87.5-229.2,0.3-317L354.1,816.5C441.7,903.7,583.5,903.7,671,816.3z"/>
</g>
<text transform="matrix(1 0 0 1 75.0059 271.8401)" class="st17 st18 st19">DENEGADO</text>
<text transform="matrix(1 0 0 1 140.3218 317.6633)" class="st17 st18 st20">Lo sentimos pero no puedes entrar a este sitio.</text>
</svg>
