<?xml version="1.0" encoding="utf-8"?>
<!-- Generator: Adobe Illustrator 19.2.1, SVG Export Plug-In . SVG Version: 6.00 Build 0)  -->
<svg version="1.1" id="Layer_1" xmlns="http://www.w3.org/2000/svg" xmlns:xlink="http://www.w3.org/1999/xlink" x="0px" y="0px"
	 viewBox="0 0 950 900" style="enable-background:new 0 0 950 900;" xml:space="preserve">
<style type="text/css">
	.st0{fill:none;}
	.st1{fill:#EEEEEE;}
	.st2{opacity:0.5;fill:#BDBDBD;enable-background:new    ;}
	.st3{fill:#F5F5F5;}
	.st4{fill:#3949AB;}
	.st5{fill:#303F9F;}
	.st6{fill:#7CB342;}
	.st7{fill:#689F38;}
	.st8{fill:#FB8C00;}
	.st9{fill:#F57C00;}
	.st10{fill:#039BE5;}
	.st11{fill:#0288D1;}
	.st12{fill:#6D4C41;}
	.st13{fill:#5D4037;}
	.st14{fill:#C0CA33;}
	.st15{fill:#AFB42B;}
	.st16{fill:#FFFFFF;}
	.st17{fill:none;stroke:#000000;stroke-width:3;stroke-miterlimit:10;}
	.st18{fill:none;stroke:#000000;stroke-width:3;stroke-miterlimit:10;stroke-dasharray:9.5674,9.5674;}
	.st19{fill:none;stroke:#000000;stroke-width:3;stroke-miterlimit:10;stroke-dasharray:11.7894,11.7894;}
	.st20{fill:#E53935;}
	.st21{fill:#D32F2F;}
	.st22{fill:#BDBDBD;}
	.st23{fill:#424242;}
	.st24{font-family:'Calibri';}
	.st25{font-size:198.6304px;}
	.st26{font-size:48.5541px;}
	.st27{fill:#FFFFFF;stroke:#FFFFFF;stroke-width:3;stroke-miterlimit:10;}
	.st28{fill:#FFFFFF;stroke:#424242;stroke-width:6;stroke-miterlimit:10;}
</style>
<rect class="st0" width="950" height="900"/>
<polygon class="st1" points="900.9,734 49.1,734 115.7,690.5 834.3,690.5 "/>
<polygon class="st2" points="792.8,720.6 163.9,720.6 213,690.6 743.7,690.6 "/>
<path class="st3" d="M203.7,810.2L203.7,810.2c-9,0-16.3-7.3-16.3-16.3V734H220v59.9C219.9,802.9,212.7,810.2,203.7,810.2z"/>
<path class="st3" d="M746.6,810.2L746.6,810.2c-9,0-16.3-7.3-16.3-16.3V734h32.6v59.9C762.9,802.9,755.6,810.2,746.6,810.2z"/>
<polygon class="st2" points="730.1,799.1 219.9,799.1 49.1,734 900.9,734 "/>
<rect x="303.9" y="476.3" class="st4" width="27.3" height="236"/>
<rect x="303.9" y="476.3" class="st5" width="11.4" height="236"/>
<rect x="333.7" y="434.1" class="st6" width="40.7" height="278.1"/>
<rect x="333.7" y="434.1" class="st7" width="16.2" height="278.1"/>
<rect x="376.7" y="521.9" class="st8" width="40.7" height="190.4"/>
<rect x="376.7" y="521.9" class="st9" width="15.1" height="190.4"/>
<rect x="420.1" y="476.3" class="st10" width="40.7" height="236"/>
<rect x="420.1" y="476.3" class="st11" width="18.6" height="236"/>
<rect x="513.5" y="636.1" class="st12" width="190.4" height="40.7"/>
<rect x="513.5" y="656.4" class="st13" width="190.4" height="15.1"/>
<rect x="513.5" y="671.6" class="st14" width="236" height="40.7"/>
<rect x="513.5" y="695.6" class="st15" width="236" height="16.7"/>
<g>
	<rect x="465.8" y="476.3" class="st16" width="40.7" height="236"/>
	<g>
		<polyline class="st17" points="506.5,706.3 506.5,712.3 500.5,712.3 		"/>
		<line class="st18" x1="490.9" y1="712.3" x2="476.6" y2="712.3"/>
		<polyline class="st17" points="471.8,712.3 465.8,712.3 465.8,706.3 		"/>
		<line class="st19" x1="465.8" y1="694.5" x2="465.8" y2="488.2"/>
		<polyline class="st17" points="465.8,482.3 465.8,476.3 471.8,476.3 		"/>
		<line class="st18" x1="481.4" y1="476.3" x2="495.7" y2="476.3"/>
		<polyline class="st17" points="500.5,476.3 506.5,476.3 506.5,482.3 		"/>
		<line class="st19" x1="506.5" y1="494.1" x2="506.5" y2="700.4"/>
	</g>
</g>
<rect x="159.8" y="606.9" transform="matrix(0.4226 -0.9063 0.9063 0.4226 -412.0822 587.4333)" class="st20" width="190.4" height="20.4"/>
<rect x="165.6" y="614.9" transform="matrix(0.4226 -0.9063 0.9063 0.4226 -410.8397 594.0903)" class="st21" width="190.4" height="9.1"/>
<rect x="49.1" y="734" class="st22" width="851.8" height="13"/>
<text transform="matrix(1 0 0 1 74.417 261.0332)" class="st23 st24 st25">OOPS!</text>
<text transform="matrix(1 0 0 1 74.417 319.3332)" class="st23 st24 st26">No hay contenido que mostrar por aqui.</text>
<path class="st27" d="M593.6,444.4"/>
<path class="st27" d="M618.4,533.8"/>
<g>
	<path class="st28" d="M822.2,381.4c0.2,0,5.6,45-13.4,79.1c-49.2,88.4-239.3,63.2-239.2,63.7c0,0.4,187.5,26.4,237.8-61.4
		C827.4,427.9,822,381.4,822.2,381.4z"/>
	<g>
		<path class="st28" d="M620.9,567.5c-17.1-14.6-34.3-29.2-51.4-43.8"/>
		<path class="st28" d="M569.5,523.7c17.1-14.6,34.3-29.2,51.4-43.8"/>
	</g>
</g>
</svg>
